:SAMPLES-PER-SECOND 30
:FULLY-SPECIFIED
:DEGREES
129
root  -41.9408 38.6953 15.7565 -5.39783 -53.2448 -3.01868
RightUpLeg  -20.67 -17.5885 1.09571
RightLeg  19.2666 -1.25746 -0.00313555
RightFoot  9.02216 0.928611 -4.83785
RightToes  0.00048216 0.542163 -0.142577
Spine  9.42747 -3.40744 10.6596
Spine1  10.5225 -1.72267 -3.40396
HEad  -11.5149 10.4374 -10.3947
LeftShoulder1  6.61512 -10.0053 -42.5358
LeftArm  -10.5389 52.9076 -29.6016
LeftForeArm  33.7079 -5.2447 -3.43793
LeftHand  -0.25398 0.0180481 5.50724
RightShoulder  1.81683 2.96782 21.8213
RightArm  2.28822 -67.914 5.62227
RightForeArm  -16.6958 3.35072 3.43044
RightHand  -0.927412 0.678747 -17.784
LeftUpLeg  14.755 0.619017 -2.05177
LeftLeg  30.3193 -4.53136 -2.55137
LeftFoot  -19.915 0.244861 1.44809
LeftToes  1.06245e-005 4.65855e-005 -8.18504e-006
130
root  -43.1087 38.6611 16.2577 -3.22104 -53.6554 -5.65739
RightUpLeg  -20.8263 -17.8877 3.24761
RightLeg  23.1915 -0.654521 -0.633957
RightFoot  5.85686 0.853355 -5.35555
RightToes  0.00048216 0.542163 -0.142577
Spine  9.0336 -3.8344 13.406
Spine1  11.6391 -1.74538 -3.66259
HEad  -12.3034 7.77699 -9.16707
LeftShoulder1  6.66455 -10.2279 -42.1331
LeftArm  -11.6671 51.9678 -31.0122
LeftForeArm  34.8397 -5.0447 -3.19218
LeftHand  -0.25398 0.0180481 5.50724
RightShoulder  1.79333 3.02281 21.1388
RightArm  3.23447 -69.8623 2.44248
RightForeArm  -27.0625 3.1073 2.85761
RightHand  -1.31662 1.82595 -20.9834
LeftUpLeg  10.453 2.15532 1.34146
LeftLeg  40.5047 -5.20192 -4.35545
LeftFoot  -11.7472 0.0798486 -2.75144
LeftToes  1.06245e-005 4.65855e-005 -8.18504e-006
131
root  -44.0999 38.6982 16.6097 -1.45628 -53.4642 -7.49977
RightUpLeg  -20.0855 -18.7192 4.4409
RightLeg  24.9772 -0.528902 -0.479506
RightFoot  2.7327 0.679605 -5.35094
RightToes  0.00048216 0.542163 -0.142577
Spine  9.06357 -3.83914 14.5162
Spine1  12.7217 -1.84703 -2.04407
HEad  -13.778 4.9213 -7.76695
LeftShoulder1  6.93059 -10.8536 -41.8938
LeftArm  -12.3907 49.0249 -32.7812
LeftForeArm  35.2054 -5.82296 -3.44411
LeftHand  -0.25398 0.0180481 5.50724
RightShoulder  1.99448 3.70217 21.3517
RightArm  -0.603579 -70.6956 5.65788
RightForeArm  -36.188 3.53632 2.56264
RightHand  -2.14097 4.85818 -24.3606
LeftUpLeg  3.9189 2.99833 3.6499
LeftLeg  51.1687 -3.57637 -4.22149
LeftFoot  -1.25682 0.480316 -5.5818
LeftToes  1.06245e-005 4.65855e-005 -8.18504e-006
132
root  -44.9535 38.8511 16.9014 -0.364792 -53.0472 -8.44717
RightUpLeg  -18.7871 -20.5512 4.89238
RightLeg  25.0161 0.427895 0.550367
RightFoot  1.23238 0.617846 -5.52105
RightToes  0.00048216 0.542163 -0.142577
Spine  9.94449 -3.7176 14.9633
Spine1  12.3967 -1.88013 -0.321224
HEad  -15.0916 3.65014 -6.68764
LeftShoulder1  7.34559 -11.5874 -42.2679
LeftArm  -12.1056 44.7527 -33.1028
LeftForeArm  34.272 -6.85043 -3.93773
LeftHand  -0.25398 0.0180481 5.50724
RightShoulder  2.17893 4.21388 21.9488
RightArm  -6.44108 -69.5406 12.0974
RightForeArm  -37.4032 3.99935 2.56294
RightHand  -2.29246 5.60469 -24.1916
LeftUpLeg  -2.91009 3.78479 4.75736
LeftLeg  59.7091 -0.552448 -0.423544
LeftFoot  4.04671 0.689964 -5.3178
LeftToes  1.06245e-005 4.65855e-005 -8.18504e-006
133
root  -45.7913 39.2037 17.2196 -0.294724 -53.3464 -8.00844
RightUpLeg  -16.5985 -19.9823 3.76856
RightLeg  23.4565 -0.119866 1.9337
RightFoot  0.822402 0.56714 -5.26153
RightToes  0.00048216 0.542163 -0.142577
Spine  10.8723 -3.20271 14.715
Spine1  11.2469 -1.50743 0.421016
HEad  -16.0969 3.06055 -5.75341
LeftShoulder1  7.89078 -12.1326 -43.9227
LeftArm  -11.0829 39.1494 -31.4654
LeftForeArm  33.2549 -8.40063 -4.45909
LeftHand  -0.25398 0.0180481 5.50724
RightShoulder  2.27918 4.27874 23.0685
RightArm  -12.2171 -65.5173 18.4612
RightForeArm  -32.4345 4.19389 2.56299
RightHand  -1.66236 3.55934 -21.6278
LeftUpLeg  -8.68088 5.42353 4.53141
LeftLeg  64.3776 2.08236 5.30212
LeftFoot  3.07984 0.300121 -2.44255
LeftToes  1.06245e-005 4.65855e-005 -8.18504e-006
134
root  -46.6304 39.633 17.5399 -1.11191 -54.2317 -6.2912
RightUpLeg  -14.2125 -17.3804 1.87969
RightLeg  21.1716 -1.87061 2.89907
RightFoot  0.487025 0.486855 -4.66152
RightToes  0.00048216 0.542163 -0.142577
Spine  11.0352 -2.43483 13.2918
Spine1  10.6558 -1.13486 1.04624
HEad  -17.0171 1.39839 -4.01939
LeftShoulder1  8.4675 -12.4279 -46.3596
LeftArm  -9.8032 32.3924 -29.3148
LeftForeArm  32.8349 -10.8583 -4.81097
LeftHand  -0.25398 0.0180481 5.50724
RightShoulder  2.38455 4.22797 24.7007
RightArm  -16.4982 -58.3465 23.0795
RightForeArm  -26.4215 4.40932 2.66904
RightHand  -1.27296 2.0438 -19.98
LeftUpLeg  -13.1761 7.13803 3.24418
LeftLeg  64.2816 3.69228 8.93062
LeftFoot  0.219762 0.00443997 -0.104271
LeftToes  1.06245e-005 4.65855e-005 -8.18504e-006
